<svg id="Layer_1" data-name="Layer 1" xmlns="http://www.w3.org/2000/svg" width="338.01" height="67.97" viewBox="0 0 338.01 67.97"><title>Binance logo - Brandlogos.net</title><path d="M230.33,384l-7.63,7.63L215,384l7.7-7.7ZM249,365.35l13.14,13.14,7.7-7.7L249,350l-20.84,20.84,7.7,7.7Zm26.29,11-7.63,7.7,7.7,7.7L283,384ZM249,402.65l-13.14-13.21-7.7,7.7L249,418l20.84-20.84-7.7-7.7Zm0-11,7.7-7.7L249,376.3l-7.7,7.7,7.7,7.63Zm81,.79v-.13c0-5-2.66-7.5-7-9.16a8.67,8.67,0,0,0,4.91-8V375c0-5.84-4.71-9.63-12.28-9.63H298.3v37.24H316c8.43.07,13.94-3.39,13.94-10.16ZM319.74,376.5c0,2.79-2.26,3.91-5.91,3.91h-7.56v-7.9h8.1c3.45,0,5.38,1.39,5.38,3.85Zm2.06,14.87c0,2.79-2.19,4.05-5.78,4.05h-9.75v-8.17h9.49c4.18,0,6,1.53,6,4.05v.07Zm25.36,11.28V365.35h-8.23v37.24h8.23v.07Zm44.08,0V365.35h-8.1v23l-17.46-23h-7.57v37.24h8.1V379l18.06,23.7h7Zm45.4,0-16-37.5h-7.56l-16,37.5h8.43l3.38-8.36h15.73l3.38,8.36h8.62Zm-14.93-15.6h-9.89l5-12.08Zm54,15.6V365.35h-8.1v23l-17.46-23h-7.57v37.24h8.1V379l18.06,23.7h7Zm42.28-6-5.24-5.24c-2.92,2.65-5.51,4.38-9.82,4.38-6.37,0-10.82-5.31-10.82-11.68v-.2c0-6.37,4.51-11.61,10.82-11.61,3.72,0,6.64,1.59,9.56,4.18l5.24-6c-3.45-3.38-7.63-5.77-14.67-5.77a19,19,0,0,0-19.45,19.25V384a18.85,18.85,0,0,0,19.12,19.18c7.17.07,11.42-2.46,15.27-6.57Zm35,6v-7.3H532.76v-7.83h17.59v-7.3H532.76v-7.57h20v-7.3H524.66v37.24H553v.07Z" transform="translate(-215 -350.01)" style="fill:#f0b90b"/></svg>