<svg xmlns="http://www.w3.org/2000/svg" viewBox="0 0 407.26 72.75"><title>Coinbase logo</title><path d="M677.42,516.64c1.86-7,7.15-10.45,13.23-10.45,6.66,0,11.76,3.81,12.93,10.45Zm38.21,3.91c0-14.45-10.58-24.61-24.79-24.61-15.09,0-26.16,11.33-26.16,26.27,0,15.72,11.85,26.17,26.35,26.17,12.25,0,21.85-7.23,24.3-17.48H703.09c-1.76,4.49-6.07,7-11.85,7-7.55,0-13.23-4.69-14.5-12.89h38.9v-4.49ZM476.29,495.94c-7.64,0-12.64,3.12-15.58,7.52v-6.54H449.05V547.4h11.76V520c0-7.72,4.9-13.18,12.15-13.18,6.76,0,11,4.78,11,11.72V547.4h11.76V517.62C495.69,504.92,489.12,495.94,476.29,495.94Zm54.08,41.6c-8.43,0-14.6-6.54-14.6-15.33s6.27-15.43,14.69-15.43,14.5,6.54,14.5,15.43S538.79,537.54,530.37,537.54Zm1.76-41.6a20.49,20.49,0,0,0-16,7.32V475.63H504.41V547.4H516v-6.64a20.39,20.39,0,0,0,16.17,7.62c14.11,0,24.79-11.13,24.79-26.17S546,495.94,532.13,495.94Zm62.41,31c0,6.74-5.88,11.72-13,11.72-4.41,0-8.13-1.86-8.13-5.76,0-5,6-6.35,11.46-6.93,5.29-.49,8.23-1.66,9.7-3.91Zm11.56-12.7c0-10.94-6.66-18.26-20.77-18.26-13.32,0-20.77,6.74-22.24,17.09h11.66c.59-4,3.72-7.32,10.39-7.32,6,0,8.92,2.64,8.92,5.86,0,4.2-5.39,5.27-12.05,6-9,1-20.18,4.1-20.18,15.82,0,9.08,6.76,14.94,17.54,14.94,8.42,0,13.71-3.52,16.36-9.08.39,5,4.11,8.2,9.31,8.2h6.86V537H606.1V514.2ZM433.57,476.11a7.42,7.42,0,1,0,7.55,7.42A7.27,7.27,0,0,0,433.57,476.11Zm210.14,41.21-8.62-1.27c-4.11-.58-7.05-2-7.05-5.18,0-3.52,3.82-5.27,9-5.27,5.68,0,9.31,2.44,10.09,6.44h11.36c-1.28-10.16-9.11-16.11-21.16-16.11-12.44,0-20.67,6.35-20.67,15.33,0,8.59,5.39,13.57,16.26,15.13l8.62,1.27c4.21.58,6.57,2.25,6.57,5.37,0,4-4.11,5.66-9.8,5.66-7,0-10.88-2.83-11.46-7.13H615.31c1.08,9.86,8.82,16.79,22.92,16.79,12.84,0,21.36-5.86,21.36-15.92C659.59,523.47,653.42,518.79,643.72,517.32ZM334.63,506.77a13.37,13.37,0,0,1,12.93,9.47H360c-2.26-12.11-12.25-20.31-25.28-20.31-14.79,0-26.35,11.23-26.35,26.27s11.27,26.17,26.35,26.17c12.74,0,22.92-8.2,25.18-20.41H347.56a13.25,13.25,0,0,1-12.84,9.57c-8.52,0-14.5-6.54-14.5-15.33S326.1,506.77,334.63,506.77Zm85.72.59h7.35v40h11.76V496.91h-19.1Zm-29.68,30.17c-8.43,0-14.6-6.54-14.6-15.33s6.07-15.43,14.5-15.43,14.69,6.64,14.69,15.43S399.09,537.54,390.67,537.54Zm-.1-41.6c-14.79,0-26.35,11.23-26.35,26.27s11.27,26.17,26.35,26.17,26.55-11.33,26.55-26.27S405.85,495.94,390.57,495.94Z" transform="translate(-308.37 -475.63)" style="fill:#0052ff"/></svg>