<svg xmlns="http://www.w3.org/2000/svg" viewBox="0 0 159.5 60.26"><title>XTB logo</title><path d="M506.5,530.46c-2.14,0-3.36,1.32-3.36,3.63s1.22,3.59,3.36,3.59,3.36-1.32,3.36-3.59S508.64,530.46,506.5,530.46Zm0,6.51c-1.53,0-2.49-1-2.49-2.89s.92-2.93,2.49-2.93,2.49,1,2.49,2.93S508.08,537,506.5,537Zm8.43-6.51a2.63,2.63,0,0,0-2.4,1.28v-1.11h-.83v6.88h.83v-4a2.07,2.07,0,0,1,2.23-2.27c1.49,0,1.79.66,1.79,2.06v4.29h.83v-4.37a3.12,3.12,0,0,0-.31-1.69A2.21,2.21,0,0,0,514.94,530.46Zm4.76,7h.83V528h-.83Zm3.19,0h.83v-6.88h-.83Zm0-8.37h.83V528h-.83Zm6.38,1.32a2.63,2.63,0,0,0-2.4,1.28v-1.11H526v6.88h.83v-4a2.07,2.07,0,0,1,2.23-2.27c1.49,0,1.79.66,1.79,2.06v4.29h.83v-4.37a3.12,3.12,0,0,0-.31-1.69A2.21,2.21,0,0,0,529.27,530.46Zm7.51,0c-2,0-3.19,1.32-3.19,3.63s1.22,3.59,3.19,3.59a2.75,2.75,0,0,0,3-2.31H539a2,2,0,0,1-2.14,1.61c-1.4,0-2.36-1-2.36-2.72v0h5.42V534C539.88,531.7,538.7,530.46,536.78,530.46Zm-2.36,3.09a2.26,2.26,0,0,1,2.32-2.39,2.17,2.17,0,0,1,2.23,2.39Zm12.45-4.9H546v2h-1v.66h1v5c0,.95.22,1.4,1.14,1.4a3.46,3.46,0,0,0,1-.16v-.62a3.13,3.13,0,0,1-.83.12c-.44,0-.52-.25-.52-.74v-5h1.35v-.66h-1.35Zm3.84,3.17v-1.2h-.83v6.88h.83v-3.79c0-1.61.74-2.39,2.18-2.39H553v-.82h-.09A2.14,2.14,0,0,0,550.72,531.82Zm9.39,4.45v-3.75c0-1.36-.92-2.06-2.67-2.06s-2.88.87-2.88,2.23h.83c0-1,.74-1.52,2.05-1.52s1.79.45,1.79,1.48c0,.7-.26.7-1.27.91a8.69,8.69,0,0,0-2.62.41,1.78,1.78,0,0,0-1.18,1.73c0,1.2.92,2,2.4,2a3.57,3.57,0,0,0,2.67-1.15v.12c0,.66.35.95,1,.95a1.93,1.93,0,0,0,.61-.08v-.58h-.31C560.11,536.93,560.11,536.73,560.11,536.28Zm-3.45.7c-1,0-1.66-.54-1.66-1.32s.57-1.2,1.62-1.44a12.49,12.49,0,0,0,2.58-.33v.95C559.28,536.15,558.19,537,556.66,537Zm11.14-5.15a2.69,2.69,0,0,0-2.53-1.36c-2,0-3.23,1.36-3.23,3.63s1.27,3.63,3.19,3.63a2.85,2.85,0,0,0,2.58-1.36v1.15h.83V528h-.83ZM565.4,537c-1.57,0-2.49-1.07-2.49-2.93s.92-2.93,2.49-2.93,2.45,1,2.45,2.93S567,537,565.4,537Zm5.55.54h.83v-6.88h-.83Zm0-8.37h.83V528h-.83Zm6.38,1.32a2.63,2.63,0,0,0-2.4,1.28v-1.11h-.83v6.88h.83v-4a2.07,2.07,0,0,1,2.23-2.27c1.49,0,1.79.66,1.79,2.06v4.29h.83v-4.37a3.12,3.12,0,0,0-.31-1.69A2.21,2.21,0,0,0,577.33,530.46Zm10,.16v1.2a2.78,2.78,0,0,0-2.53-1.36c-1.92,0-3.23,1.36-3.23,3.63s1.27,3.63,3.23,3.63a2.83,2.83,0,0,0,2.53-1.36v.87c0,1.61-.87,2.43-2.62,2.43-1.22,0-2-.49-2.05-1.32h-.87c.09,1.24,1.18,2,2.93,2,2.27,0,3.45-1.07,3.45-3.17v-6.51h-.83ZM585,537c-1.53,0-2.49-1.07-2.49-2.93s.92-2.93,2.49-2.93,2.45,1,2.45,2.93S586.5,537,585,537Z" transform="translate(-432.25 -481.87)"/><polygon points="90.31 40.76 85.86 32.95 81.55 40.76 70.89 40.76 80.8 25.98 71.28 12.41 82.12 12.41 85.95 19.19 89.87 12.41 100.58 12.41 91.11 25.98 101.02 40.76 90.31 40.76"/><path d="M580.29,522.63a9,9,0,0,1-8-4.44v3.73h-8.85V485.42h8.81V497.5a9.18,9.18,0,0,1,8.21-4.35c6.46,0,11.33,5.89,11.33,14.94C591.75,516.83,587,522.63,580.29,522.63Zm-2.82-22.41c-3.34,0-5.35,2.64-5.35,7.34,0,5.1,1.8,7.73,5.13,7.73s5.3-2.68,5.3-7.73C582.55,503,580.54,500.22,577.47,500.22Z" transform="translate(-432.25 -481.87)"/><path d="M556.31,500.87V494h-4.75v-8.56h-9.19V494h-3.78v6.89h3.78v12.25c0,2.11-1.29,12.21,13.86,8.83v-5.84a11.79,11.79,0,0,1-1.2,0c-2.93,0-3.46-1.23-3.46-4.57V500.83h4.75Z" transform="translate(-432.25 -481.87)"/><rect x="1.77" y="10.63" width="54.94" height="38.99" style="fill:#fff"/><path d="M432.25,542.13h60.26V481.87H432.25Zm41-17.52c-.26-.22-.52-.48-.78-.7a73.46,73.46,0,0,0-8.91-6.87,84.88,84.88,0,0,1-9,4.78l-18.78-3.74a92.54,92.54,0,0,0,10.83-3.52q3.52-1.43,6.91-3.13c-1.39-.65-2.83-1.26-4.3-1.87A92.74,92.74,0,0,0,438.29,506l18.78-3.74c2.13,1,4.22,2,6.22,3.13a70.34,70.34,0,0,0,6.52-5.26c.26-.22.52-.48.78-.7l15.87-3A77,77,0,0,1,472.16,511a78.48,78.48,0,0,1,16.91,16.56Z" transform="translate(-432.25 -481.87)" style="fill:#e30613"/></svg>